<svg width="76" height="56" viewBox="0 0 76 56" fill="none" xmlns="http://www.w3.org/2000/svg">
<g filter="url(#filter0_d_176_102)">
<path d="M19.7 46C17.38 46 15.32 45.46 13.52 44.38C11.76 43.26 10.38 41.8 9.38 40C8.38 38.2 7.88 36.24 7.88 34.12C7.88 32.2 8.32 30.4 9.2 28.72C10.12 27.04 11.44 25.72 13.16 24.76C11.48 23.68 10.2 22.34 9.32 20.74C8.44 19.14 8 17.46 8 15.7C8 13.54 8.5 11.58 9.5 9.82C10.54 8.06 11.94 6.66 13.7 5.62C15.46 4.54 17.4 4 19.52 4H36.14V9.1H20.18C18.94 9.1 17.84 9.4 16.88 10C15.92 10.6 15.16 11.4 14.6 12.4C14.04 13.36 13.76 14.46 13.76 15.7C13.76 16.86 14.04 17.92 14.6 18.88C15.2 19.84 16 20.62 17 21.22C18 21.78 19.1 22.06 20.3 22.06H33.92V27.16H20.72C19.24 27.16 17.96 27.5 16.88 28.18C15.84 28.82 15.02 29.68 14.42 30.76C13.86 31.8 13.58 32.92 13.58 34.12C13.58 35.32 13.86 36.44 14.42 37.48C14.98 38.52 15.78 39.36 16.82 40C17.86 40.6 19.08 40.9 20.48 40.9H36.14V46H19.7ZM42.9486 46V14.92C42.9486 12.8 43.4086 10.92 44.3286 9.28C45.2886 7.64 46.5886 6.36 48.2286 5.44C49.9086 4.48 51.7886 4 53.8686 4H68.8086V9.1H54.5286C52.7686 9.1 51.3486 9.66 50.2686 10.78C49.2286 11.86 48.7086 13.24 48.7086 14.92V23.44H66.5886V28.54H48.7086V46H42.9486Z" fill="url(#paint0_linear_176_102)"/>
</g>
<defs>
<filter id="filter0_d_176_102" x="0.880005" y="-3.8147e-06" width="74.9286" height="56" filterUnits="userSpaceOnUse" color-interpolation-filters="sRGB">
<feFlood flood-opacity="0" result="BackgroundImageFix"/>
<feColorMatrix in="SourceAlpha" type="matrix" values="0 0 0 0 0 0 0 0 0 0 0 0 0 0 0 0 0 0 127 0" result="hardAlpha"/>
<feOffset dy="3"/>
<feGaussianBlur stdDeviation="3.5"/>
<feComposite in2="hardAlpha" operator="out"/>
<feColorMatrix type="matrix" values="0 0 0 0 0 0 0 0 0 0 0 0 0 0 0 0 0 0 0.25 0"/>
<feBlend mode="normal" in2="BackgroundImageFix" result="effect1_dropShadow_176_102"/>
<feBlend mode="normal" in="SourceGraphic" in2="effect1_dropShadow_176_102" result="shape"/>
</filter>
<linearGradient id="paint0_linear_176_102" x1="6.01539" y1="-13.0581" x2="57.4875" y2="2.61036" gradientUnits="userSpaceOnUse">
<stop stop-color="#FB2C36"/>
<stop offset="1" stop-color="#FB64B6"/>
</linearGradient>
</defs>
</svg>
