<svg width="151" height="151" viewBox="0 0 151 151" fill="none" xmlns="http://www.w3.org/2000/svg">
<path d="M131.571 30.0582C87.8543 38.6059 63.4835 38.3347 20.2257 30.0582C-23.0321 21.5087 20.2257 67.5747 20.2257 67.5747C20.2257 67.5747 49.1953 53.8487 57.3407 67.5747C65.3134 81.0099 64.1392 142.805 57.7621 142.703C57.6222 142.671 57.4817 142.64 57.3407 142.608C57.4836 142.669 57.6241 142.7 57.7621 142.703C71.4548 145.763 79.5705 145.768 94.012 142.703C94.1571 142.706 94.305 142.675 94.4556 142.608C94.3071 142.64 94.1592 142.671 94.012 142.703C87.8563 142.573 86.6969 80.9846 94.4556 67.5747C102.397 53.8487 131.571 67.5747 131.571 67.5747C131.571 67.5747 175.287 21.5104 131.571 30.0582Z" fill="#363636"/>
<path d="M151 75C151 33.5786 117.197 0 75.5 0C33.8025 0 0 33.5786 0 75C0 116.421 33.8025 150 75.5 150C117.197 150 151 116.421 151 75Z" fill="#363636"/>
<path fill-rule="evenodd" clip-rule="evenodd" d="M108.497 34.0221C99.5327 27.1177 88.2634 23 76 23C63.7468 23 52.4861 27.1109 43.5252 34.0049C39.4256 33.4358 35.188 32.7677 30.7617 32.0016C42.2127 20.2832 58.249 13 76 13C93.7502 13 109.786 20.2825 121.237 32.0002C116.816 32.7774 112.586 33.451 108.497 34.0221ZM90.403 126.04C112.714 119.817 129 99.4971 129 75.5C129 72.4245 128.733 69.4095 128.219 66.4768C130.301 67.3047 131.571 67.9073 131.571 67.9073C131.571 67.9073 134.109 65.2091 137.351 61.2339C138.43 65.816 139 70.5919 139 75.5C139 104.588 118.97 129.035 91.8469 136.006C91.2674 133.297 90.7814 129.889 90.403 126.04ZM23.7978 66.3805C23.2734 69.3435 23 72.3909 23 75.5C23 99.4004 39.1553 119.654 61.3278 125.964C60.9269 129.802 60.4173 133.206 59.8143 135.918C32.8633 128.831 13 104.467 13 75.5C13 70.6409 13.5589 65.9113 14.6165 61.3711C17.7714 65.2711 20.2257 67.9073 20.2257 67.9073C20.2257 67.9073 21.5851 67.2576 23.7978 66.3805Z" fill="#E0E0E0"/>
<g filter="url(#filter0_d_100_115)">
<path d="M134.181 32.0615C103.527 39.9997 46.7962 39.7478 16.4638 32.0615C-13.8687 24.1218 20.7016 63.326 20.7016 63.326C20.7016 63.326 54.5 51 61.6672 63.326C68.7014 75.4233 66.0293 140.97 61.4576 140.856C61.3706 140.83 61.2835 140.805 61.1963 140.778C61.284 140.828 61.3711 140.854 61.4576 140.856C71.1456 143.712 79.8982 143.717 90.1135 140.857C90.204 140.859 90.2963 140.834 90.3902 140.778C90.2979 140.805 90.2056 140.831 90.1135 140.857C85.7861 140.729 85.4065 75.812 90.8611 63.326C96.4297 50.5789 130.885 63.326 130.885 63.326C130.885 63.326 164.835 24.1233 134.181 32.0615Z" fill="#D1B1FF"/>
</g>
<defs>
<filter id="filter0_d_100_115" x="0" y="31" width="151" height="120" filterUnits="userSpaceOnUse" color-interpolation-filters="sRGB">
<feFlood flood-opacity="0" result="BackgroundImageFix"/>
<feColorMatrix in="SourceAlpha" type="matrix" values="0 0 0 0 0 0 0 0 0 0 0 0 0 0 0 0 0 0 127 0" result="hardAlpha"/>
<feOffset dy="4"/>
<feGaussianBlur stdDeviation="2"/>
<feComposite in2="hardAlpha" operator="out"/>
<feColorMatrix type="matrix" values="0 0 0 0 0 0 0 0 0 0 0 0 0 0 0 0 0 0 0.25 0"/>
<feBlend mode="normal" in2="BackgroundImageFix" result="effect1_dropShadow_100_115"/>
<feBlend mode="normal" in="SourceGraphic" in2="effect1_dropShadow_100_115" result="shape"/>
</filter>
</defs>
</svg>
