<svg width="45" height="30" viewBox="0 0 45 30" fill="none" xmlns="http://www.w3.org/2000/svg">
<path d="M10.6 29.32C4.30667 29.32 0.84 26.4133 0.2 20.6L3.08 20.2C3.48 22.4667 4.28 24.1067 5.48 25.12C6.70667 26.1067 8.48 26.6 10.8 26.6C12.7733 26.6 14.3067 26.16 15.4 25.28C16.52 24.3733 17.08 23.1333 17.08 21.56C17.08 20.5467 16.84 19.7333 16.36 19.12C15.9067 18.5067 15.2 18.0133 14.24 17.64C13.3067 17.24 12.12 16.88 10.68 16.56C8.92 16.16 7.38667 15.68 6.08 15.12C4.77333 14.56 3.76 13.76 3.04 12.72C2.32 11.68 1.96 10.24 1.96 8.4C1.96 6.82667 2.34667 5.42667 3.12 4.2C3.92 2.94667 5 1.97333 6.36 1.28C7.74667 0.559999 9.32 0.199999 11.08 0.199999C13.5333 0.199999 15.5333 0.866666 17.08 2.2C18.6533 3.53333 19.5867 5.38667 19.88 7.76L17.2 8.24C16.8267 6.4 16.1333 5.05333 15.12 4.2C14.1333 3.34667 12.76 2.92 11 2.92C9.18667 2.92 7.73333 3.41333 6.64 4.4C5.57333 5.36 5.04 6.65333 5.04 8.28C5.04 10.0133 5.6 11.2667 6.72 12.04C7.84 12.8133 9.54667 13.44 11.84 13.92C13.6 14.2933 15.0933 14.76 16.32 15.32C17.5733 15.8533 18.52 16.6133 19.16 17.6C19.8267 18.56 20.16 19.8667 20.16 21.52C20.16 23.0667 19.7467 24.4267 18.92 25.6C18.12 26.7733 17 27.6933 15.56 28.36C14.12 29 12.4667 29.32 10.6 29.32ZM24.9363 29V0.599998H32.3363C36.3096 0.599998 39.2029 1.25333 41.0163 2.56C42.8563 3.84 43.7763 5.69333 43.7763 8.12C43.7763 9.61333 43.3629 10.9333 42.5363 12.08C41.7096 13.2267 40.5096 14.0667 38.9363 14.6C40.5363 15.08 41.7896 15.92 42.6963 17.12C43.6296 18.2933 44.0963 19.6533 44.0963 21.2C44.0963 23.7333 43.2429 25.6667 41.5363 27C39.8563 28.3333 37.5629 29 34.6563 29H24.9363ZM32.3363 3.16H27.9763V13.4H33.0963C35.6296 13.4 37.5229 12.9867 38.7763 12.16C40.0563 11.3067 40.6963 9.97333 40.6963 8.16C40.6963 6.4 40.0296 5.13333 38.6963 4.36C37.3629 3.56 35.2429 3.16 32.3363 3.16ZM27.9763 26.44H34.5363C36.5363 26.44 38.1096 26.04 39.2563 25.24C40.4296 24.4133 41.0163 23.0933 41.0163 21.28C41.0163 17.76 38.7363 16 34.1763 16H27.9763V26.44Z" fill="url(#paint0_linear_199_102)"/>
<defs>
<linearGradient id="paint0_linear_199_102" x1="40" y1="-0.999997" x2="7.38066" y2="26.6651" gradientUnits="userSpaceOnUse">
<stop offset="0.201923" stop-color="#0099FF"/>
<stop offset="1" stop-color="#CCD5FF"/>
</linearGradient>
</defs>
</svg>
